<mxfile host="app.diagrams.net" modified="2024-07-21T04:47:22.051Z" agent="Mozilla/5.0 (X11; Linux x86_64; rv:128.0) Gecko/20100101 Firefox/128.0" etag="vPk21CvnrzV_Pxdfcqo6" version="24.7.2" type="device" pages="2">
  <diagram name="Page-1" id="we2Nf_3BzXFsyqmwU_2K">
    <mxGraphModel dx="989" dy="370" grid="1" gridSize="10" guides="1" tooltips="1" connect="1" arrows="1" fold="1" page="1" pageScale="1" pageWidth="850" pageHeight="1100" math="0" shadow="0">
      <root>
        <mxCell id="0" />
        <mxCell id="1" parent="0" />
        <mxCell id="5Wi7uwszrFIGQoVAp8LL-33" value="" style="rounded=0;whiteSpace=wrap;html=1;strokeColor=#23445d;align=center;verticalAlign=middle;fontFamily=Roboto Mono;fontSource=https%3A%2F%2Ffonts.googleapis.com%2Fcss%3Ffamily%3DRoboto%2BMono;fontSize=10;fillColor=#bac8d3;" parent="1" vertex="1">
          <mxGeometry x="330" y="170" width="400" height="660" as="geometry" />
        </mxCell>
        <mxCell id="5Wi7uwszrFIGQoVAp8LL-10" value="" style="edgeStyle=orthogonalEdgeStyle;rounded=0;orthogonalLoop=1;jettySize=auto;html=1;fontFamily=Roboto Mono;fontSource=https%3A%2F%2Ffonts.googleapis.com%2Fcss%3Ffamily%3DRoboto%2BMono;fontSize=10;fontColor=default;" parent="1" source="5Wi7uwszrFIGQoVAp8LL-2" target="5Wi7uwszrFIGQoVAp8LL-9" edge="1">
          <mxGeometry relative="1" as="geometry" />
        </mxCell>
        <mxCell id="5Wi7uwszrFIGQoVAp8LL-2" value="&lt;font style=&quot;font-size: 10px;&quot; data-font-src=&quot;https://fonts.googleapis.com/css?family=Roboto+Mono&quot;&gt;Input: url&lt;/font&gt;" style="shape=parallelogram;perimeter=parallelogramPerimeter;whiteSpace=wrap;html=1;fixedSize=1;fontFamily=Roboto Mono;fontSource=https%3A%2F%2Ffonts.googleapis.com%2Fcss%3Ffamily%3DRoboto%2BMono;fillColor=#dae8fc;strokeColor=#6c8ebf;fontSize=10;" parent="1" vertex="1">
          <mxGeometry x="425" y="190" width="120" height="60" as="geometry" />
        </mxCell>
        <mxCell id="5Wi7uwszrFIGQoVAp8LL-15" value="" style="edgeStyle=orthogonalEdgeStyle;rounded=0;orthogonalLoop=1;jettySize=auto;html=1;fontFamily=Roboto Mono;fontSource=https%3A%2F%2Ffonts.googleapis.com%2Fcss%3Ffamily%3DRoboto%2BMono;fontSize=10;fontColor=default;" parent="1" source="5Wi7uwszrFIGQoVAp8LL-9" target="5Wi7uwszrFIGQoVAp8LL-14" edge="1">
          <mxGeometry relative="1" as="geometry" />
        </mxCell>
        <mxCell id="5Wi7uwszrFIGQoVAp8LL-20" value="Não" style="edgeLabel;html=1;align=center;verticalAlign=middle;resizable=0;points=[];strokeColor=default;fontFamily=Roboto Mono;fontSource=https%3A%2F%2Ffonts.googleapis.com%2Fcss%3Ffamily%3DRoboto%2BMono;fontSize=10;fontColor=default;fillColor=default;" parent="5Wi7uwszrFIGQoVAp8LL-15" vertex="1" connectable="0">
          <mxGeometry x="-0.0571" y="1" relative="1" as="geometry">
            <mxPoint x="1" as="offset" />
          </mxGeometry>
        </mxCell>
        <mxCell id="5Wi7uwszrFIGQoVAp8LL-17" value="" style="edgeStyle=orthogonalEdgeStyle;rounded=0;orthogonalLoop=1;jettySize=auto;html=1;fontFamily=Roboto Mono;fontSource=https%3A%2F%2Ffonts.googleapis.com%2Fcss%3Ffamily%3DRoboto%2BMono;fontSize=10;fontColor=default;" parent="1" source="5Wi7uwszrFIGQoVAp8LL-9" target="5Wi7uwszrFIGQoVAp8LL-16" edge="1">
          <mxGeometry relative="1" as="geometry" />
        </mxCell>
        <mxCell id="5Wi7uwszrFIGQoVAp8LL-9" value="URL eh válida?" style="rhombus;whiteSpace=wrap;html=1;fontFamily=Roboto Mono;fillColor=#ffe6cc;strokeColor=#d79b00;fontSource=https%3A%2F%2Ffonts.googleapis.com%2Fcss%3Ffamily%3DRoboto%2BMono;fontSize=10;" parent="1" vertex="1">
          <mxGeometry x="445" y="290" width="80" height="80" as="geometry" />
        </mxCell>
        <mxCell id="5Wi7uwszrFIGQoVAp8LL-14" value="&lt;div style=&quot;font-size: 10px;&quot;&gt;Retorna erro ao client&lt;/div&gt;" style="shape=parallelogram;perimeter=parallelogramPerimeter;whiteSpace=wrap;html=1;fixedSize=1;fontFamily=Roboto Mono;fillColor=#f8cecc;strokeColor=#b85450;fontSource=https%3A%2F%2Ffonts.googleapis.com%2Fcss%3Ffamily%3DRoboto%2BMono;fontSize=10;" parent="1" vertex="1">
          <mxGeometry x="585" y="300" width="120" height="60" as="geometry" />
        </mxCell>
        <mxCell id="5Wi7uwszrFIGQoVAp8LL-19" value="" style="edgeStyle=orthogonalEdgeStyle;rounded=0;orthogonalLoop=1;jettySize=auto;html=1;fontFamily=Roboto Mono;fontSource=https%3A%2F%2Ffonts.googleapis.com%2Fcss%3Ffamily%3DRoboto%2BMono;fontSize=10;fontColor=default;" parent="1" source="5Wi7uwszrFIGQoVAp8LL-16" target="5Wi7uwszrFIGQoVAp8LL-18" edge="1">
          <mxGeometry relative="1" as="geometry" />
        </mxCell>
        <mxCell id="5Wi7uwszrFIGQoVAp8LL-16" value="Calcula hash" style="whiteSpace=wrap;html=1;fontFamily=Roboto Mono;fillColor=#f5f5f5;strokeColor=#666666;fontSource=https%3A%2F%2Ffonts.googleapis.com%2Fcss%3Ffamily%3DRoboto%2BMono;fontColor=#333333;fontSize=10;" parent="1" vertex="1">
          <mxGeometry x="425" y="410" width="120" height="60" as="geometry" />
        </mxCell>
        <mxCell id="5Wi7uwszrFIGQoVAp8LL-23" value="" style="edgeStyle=orthogonalEdgeStyle;rounded=0;orthogonalLoop=1;jettySize=auto;html=1;fontFamily=Roboto Mono;fontSource=https%3A%2F%2Ffonts.googleapis.com%2Fcss%3Ffamily%3DRoboto%2BMono;fontSize=10;fontColor=default;" parent="1" source="5Wi7uwszrFIGQoVAp8LL-18" target="5Wi7uwszrFIGQoVAp8LL-22" edge="1">
          <mxGeometry relative="1" as="geometry" />
        </mxCell>
        <mxCell id="5Wi7uwszrFIGQoVAp8LL-24" value="Sim" style="edgeLabel;html=1;align=center;verticalAlign=middle;resizable=0;points=[];strokeColor=default;fontFamily=Roboto Mono;fontSource=https%3A%2F%2Ffonts.googleapis.com%2Fcss%3Ffamily%3DRoboto%2BMono;fontSize=10;fontColor=default;fillColor=default;" parent="5Wi7uwszrFIGQoVAp8LL-23" vertex="1" connectable="0">
          <mxGeometry x="-0.0841" y="1" relative="1" as="geometry">
            <mxPoint as="offset" />
          </mxGeometry>
        </mxCell>
        <mxCell id="5Wi7uwszrFIGQoVAp8LL-27" value="" style="edgeStyle=orthogonalEdgeStyle;rounded=0;orthogonalLoop=1;jettySize=auto;html=1;fontFamily=Roboto Mono;fontSource=https%3A%2F%2Ffonts.googleapis.com%2Fcss%3Ffamily%3DRoboto%2BMono;fontSize=10;fontColor=default;" parent="1" source="5Wi7uwszrFIGQoVAp8LL-18" target="5Wi7uwszrFIGQoVAp8LL-26" edge="1">
          <mxGeometry relative="1" as="geometry" />
        </mxCell>
        <mxCell id="5Wi7uwszrFIGQoVAp8LL-32" value="Não" style="edgeLabel;html=1;align=center;verticalAlign=middle;resizable=0;points=[];strokeColor=default;fontFamily=Roboto Mono;fontSource=https%3A%2F%2Ffonts.googleapis.com%2Fcss%3Ffamily%3DRoboto%2BMono;fontSize=10;fontColor=default;fillColor=default;" parent="5Wi7uwszrFIGQoVAp8LL-27" vertex="1" connectable="0">
          <mxGeometry x="-0.1" y="-1" relative="1" as="geometry">
            <mxPoint as="offset" />
          </mxGeometry>
        </mxCell>
        <mxCell id="5Wi7uwszrFIGQoVAp8LL-18" value="hash já existe no bd?" style="rhombus;whiteSpace=wrap;html=1;fontFamily=Roboto Mono;fillColor=#ffe6cc;strokeColor=#d79b00;fontSource=https%3A%2F%2Ffonts.googleapis.com%2Fcss%3Ffamily%3DRoboto%2BMono;fontSize=10;" parent="1" vertex="1">
          <mxGeometry x="445" y="510" width="80" height="80" as="geometry" />
        </mxCell>
        <mxCell id="5Wi7uwszrFIGQoVAp8LL-25" style="edgeStyle=orthogonalEdgeStyle;rounded=0;orthogonalLoop=1;jettySize=auto;html=1;entryX=0.688;entryY=0.875;entryDx=0;entryDy=0;fontFamily=Roboto Mono;fontSource=https%3A%2F%2Ffonts.googleapis.com%2Fcss%3Ffamily%3DRoboto%2BMono;fontSize=10;fontColor=default;entryPerimeter=0;" parent="1" source="5Wi7uwszrFIGQoVAp8LL-22" target="5Wi7uwszrFIGQoVAp8LL-18" edge="1">
          <mxGeometry relative="1" as="geometry">
            <Array as="points">
              <mxPoint x="645" y="610" />
              <mxPoint x="520" y="610" />
              <mxPoint x="520" y="580" />
            </Array>
          </mxGeometry>
        </mxCell>
        <mxCell id="5Wi7uwszrFIGQoVAp8LL-22" value="Calcula próxima hash" style="whiteSpace=wrap;html=1;fontFamily=Roboto Mono;fontSource=https%3A%2F%2Ffonts.googleapis.com%2Fcss%3Ffamily%3DRoboto%2BMono;fontSize=10;" parent="1" vertex="1">
          <mxGeometry x="585" y="520" width="120" height="60" as="geometry" />
        </mxCell>
        <mxCell id="5Wi7uwszrFIGQoVAp8LL-31" value="" style="edgeStyle=orthogonalEdgeStyle;rounded=0;orthogonalLoop=1;jettySize=auto;html=1;fontFamily=Roboto Mono;fontSource=https%3A%2F%2Ffonts.googleapis.com%2Fcss%3Ffamily%3DRoboto%2BMono;fontSize=10;fontColor=default;" parent="1" source="5Wi7uwszrFIGQoVAp8LL-26" target="5Wi7uwszrFIGQoVAp8LL-30" edge="1">
          <mxGeometry relative="1" as="geometry" />
        </mxCell>
        <mxCell id="5Wi7uwszrFIGQoVAp8LL-26" value="Salva hash no BD" style="whiteSpace=wrap;html=1;fontFamily=Roboto Mono;fillColor=#f5f5f5;strokeColor=#666666;fontSource=https%3A%2F%2Ffonts.googleapis.com%2Fcss%3Ffamily%3DRoboto%2BMono;fontColor=#333333;fontSize=10;" parent="1" vertex="1">
          <mxGeometry x="425" y="630" width="120" height="60" as="geometry" />
        </mxCell>
        <mxCell id="5Wi7uwszrFIGQoVAp8LL-30" value="&lt;div style=&quot;font-size: 10px;&quot;&gt;Devolve domain/hash ao client&lt;br style=&quot;font-size: 10px;&quot;&gt;&lt;/div&gt;" style="shape=parallelogram;perimeter=parallelogramPerimeter;whiteSpace=wrap;html=1;fixedSize=1;strokeColor=#0e8088;align=center;verticalAlign=middle;fontFamily=Roboto Mono;fontSource=https%3A%2F%2Ffonts.googleapis.com%2Fcss%3Ffamily%3DRoboto%2BMono;fontSize=10;fillColor=#b0e3e6;" parent="1" vertex="1">
          <mxGeometry x="425" y="730" width="120" height="60" as="geometry" />
        </mxCell>
        <mxCell id="5Wi7uwszrFIGQoVAp8LL-34" value="Create new shortened URL" style="text;html=1;align=center;verticalAlign=middle;resizable=0;points=[];autosize=1;strokeColor=none;fillColor=none;fontFamily=Roboto Mono;fontSource=https%3A%2F%2Ffonts.googleapis.com%2Fcss%3Ffamily%3DRoboto%2BMono;fontSize=17;fontColor=default;" parent="1" vertex="1">
          <mxGeometry x="320" y="140" width="270" height="30" as="geometry" />
        </mxCell>
        <mxCell id="5Wi7uwszrFIGQoVAp8LL-35" value="" style="rounded=0;whiteSpace=wrap;html=1;strokeColor=#23445d;align=center;verticalAlign=middle;fontFamily=Roboto Mono;fontSource=https%3A%2F%2Ffonts.googleapis.com%2Fcss%3Ffamily%3DRoboto%2BMono;fontSize=10;fillColor=#bac8d3;" parent="1" vertex="1">
          <mxGeometry x="855" y="165" width="380" height="330" as="geometry" />
        </mxCell>
        <mxCell id="5Wi7uwszrFIGQoVAp8LL-36" value="" style="edgeStyle=orthogonalEdgeStyle;rounded=0;orthogonalLoop=1;jettySize=auto;html=1;fontFamily=Roboto Mono;fontSource=https%3A%2F%2Ffonts.googleapis.com%2Fcss%3Ffamily%3DRoboto%2BMono;fontSize=10;fontColor=default;" parent="1" source="5Wi7uwszrFIGQoVAp8LL-37" target="5Wi7uwszrFIGQoVAp8LL-41" edge="1">
          <mxGeometry relative="1" as="geometry" />
        </mxCell>
        <mxCell id="5Wi7uwszrFIGQoVAp8LL-37" value="GET http://domain/&amp;lt;hash&amp;gt;" style="shape=parallelogram;perimeter=parallelogramPerimeter;whiteSpace=wrap;html=1;fixedSize=1;fontFamily=Roboto Mono;fontSource=https%3A%2F%2Ffonts.googleapis.com%2Fcss%3Ffamily%3DRoboto%2BMono;fillColor=#dae8fc;strokeColor=#6c8ebf;fontSize=10;" parent="1" vertex="1">
          <mxGeometry x="925" y="190" width="120" height="60" as="geometry" />
        </mxCell>
        <mxCell id="5Wi7uwszrFIGQoVAp8LL-57" value="" style="edgeStyle=orthogonalEdgeStyle;rounded=0;orthogonalLoop=1;jettySize=auto;html=1;fontFamily=Roboto Mono;fontSource=https%3A%2F%2Ffonts.googleapis.com%2Fcss%3Ffamily%3DRoboto%2BMono;fontSize=10;fontColor=default;" parent="1" source="5Wi7uwszrFIGQoVAp8LL-41" target="5Wi7uwszrFIGQoVAp8LL-56" edge="1">
          <mxGeometry relative="1" as="geometry" />
        </mxCell>
        <mxCell id="5Wi7uwszrFIGQoVAp8LL-60" value="" style="edgeStyle=orthogonalEdgeStyle;rounded=0;orthogonalLoop=1;jettySize=auto;html=1;fontFamily=Roboto Mono;fontSource=https%3A%2F%2Ffonts.googleapis.com%2Fcss%3Ffamily%3DRoboto%2BMono;fontSize=10;fontColor=default;" parent="1" source="5Wi7uwszrFIGQoVAp8LL-41" target="5Wi7uwszrFIGQoVAp8LL-59" edge="1">
          <mxGeometry relative="1" as="geometry" />
        </mxCell>
        <mxCell id="5Wi7uwszrFIGQoVAp8LL-41" value="hash existe no BD?" style="rhombus;whiteSpace=wrap;html=1;fontFamily=Roboto Mono;fillColor=#ffe6cc;strokeColor=#d79b00;fontSource=https%3A%2F%2Ffonts.googleapis.com%2Fcss%3Ffamily%3DRoboto%2BMono;fontSize=10;" parent="1" vertex="1">
          <mxGeometry x="945" y="290" width="80" height="80" as="geometry" />
        </mxCell>
        <mxCell id="5Wi7uwszrFIGQoVAp8LL-55" value="Access cached URL" style="text;html=1;align=center;verticalAlign=middle;resizable=0;points=[];autosize=1;strokeColor=none;fillColor=none;fontFamily=Roboto Mono;fontSource=https%3A%2F%2Ffonts.googleapis.com%2Fcss%3Ffamily%3DRoboto%2BMono;fontSize=17;fontColor=default;" parent="1" vertex="1">
          <mxGeometry x="855" y="140" width="200" height="30" as="geometry" />
        </mxCell>
        <mxCell id="5Wi7uwszrFIGQoVAp8LL-56" value="Retorna 404 ao client" style="shape=parallelogram;perimeter=parallelogramPerimeter;whiteSpace=wrap;html=1;fixedSize=1;fontSize=10;fontFamily=Roboto Mono;fillColor=#fad9d5;strokeColor=#ae4132;fontSource=https%3A%2F%2Ffonts.googleapis.com%2Fcss%3Ffamily%3DRoboto%2BMono;" parent="1" vertex="1">
          <mxGeometry x="1085" y="300" width="120" height="60" as="geometry" />
        </mxCell>
        <mxCell id="5Wi7uwszrFIGQoVAp8LL-59" value="Redireciona cliente ao resultado da hash no BD" style="shape=parallelogram;perimeter=parallelogramPerimeter;whiteSpace=wrap;html=1;fixedSize=1;fontSize=10;fontFamily=Roboto Mono;fillColor=#b0e3e6;strokeColor=#0e8088;fontSource=https%3A%2F%2Ffonts.googleapis.com%2Fcss%3Ffamily%3DRoboto%2BMono;" parent="1" vertex="1">
          <mxGeometry x="925" y="410" width="120" height="60" as="geometry" />
        </mxCell>
      </root>
    </mxGraphModel>
  </diagram>
  <diagram id="CCAhiRJneVYuBT654JHf" name="BD - UML">
    <mxGraphModel dx="1373" dy="606" grid="1" gridSize="10" guides="1" tooltips="1" connect="1" arrows="1" fold="1" page="1" pageScale="1" pageWidth="850" pageHeight="1100" math="0" shadow="0">
      <root>
        <mxCell id="0" />
        <mxCell id="1" parent="0" />
        <mxCell id="p89t9oVVgF_kUO3e--Zp-4" value="&lt;div&gt;«interface»&lt;/div&gt;&lt;div&gt;&lt;b&gt;BD&lt;/b&gt;&lt;/div&gt;" style="swimlane;fontStyle=1;align=center;verticalAlign=top;childLayout=stackLayout;horizontal=1;startSize=35;horizontalStack=0;resizeParent=1;resizeParentMax=0;resizeLast=0;collapsible=1;marginBottom=0;whiteSpace=wrap;html=1;strokeColor=default;fontFamily=Roboto Mono;fontSource=https%3A%2F%2Ffonts.googleapis.com%2Fcss%3Ffamily%3DRoboto%2BMono;fontSize=10;fontColor=default;fillColor=#dae8fc;rounded=0;arcSize=15;absoluteArcSize=0;swimlaneHead=1;swimlaneBody=1;resizeHeight=1;resizeWidth=0;labelBorderColor=none;" vertex="1" parent="1">
          <mxGeometry x="110" y="210" width="340" height="132" as="geometry">
            <mxRectangle x="100" y="380" width="50" height="30" as="alternateBounds" />
          </mxGeometry>
        </mxCell>
        <mxCell id="p89t9oVVgF_kUO3e--Zp-5" value="+ hashExists(hash string): bool" style="text;strokeColor=none;fillColor=none;align=left;verticalAlign=top;spacingLeft=4;spacingRight=4;overflow=hidden;rotatable=0;points=[[0,0.5],[1,0.5]];portConstraint=eastwest;whiteSpace=wrap;html=1;fontFamily=Roboto Mono;fontSource=https%3A%2F%2Ffonts.googleapis.com%2Fcss%3Ffamily%3DRoboto%2BMono;fontSize=10;fontColor=default;" vertex="1" parent="p89t9oVVgF_kUO3e--Zp-4">
          <mxGeometry y="35" width="340" height="25" as="geometry" />
        </mxCell>
        <mxCell id="p89t9oVVgF_kUO3e--Zp-6" value="" style="line;strokeWidth=1;fillColor=none;align=left;verticalAlign=middle;spacingTop=-1;spacingLeft=3;spacingRight=3;rotatable=0;labelPosition=right;points=[];portConstraint=eastwest;strokeColor=inherit;fontFamily=Roboto Mono;fontSource=https%3A%2F%2Ffonts.googleapis.com%2Fcss%3Ffamily%3DRoboto%2BMono;fontSize=10;fontColor=default;" vertex="1" parent="p89t9oVVgF_kUO3e--Zp-4">
          <mxGeometry y="60" width="340" height="8" as="geometry" />
        </mxCell>
        <mxCell id="p89t9oVVgF_kUO3e--Zp-7" value="+ saveHash(hash string): error" style="text;strokeColor=none;fillColor=none;align=left;verticalAlign=top;spacingLeft=4;spacingRight=4;overflow=hidden;rotatable=0;points=[[0,0.5],[1,0.5]];portConstraint=eastwest;whiteSpace=wrap;html=1;fontFamily=Roboto Mono;fontSource=https%3A%2F%2Ffonts.googleapis.com%2Fcss%3Ffamily%3DRoboto%2BMono;fontSize=10;fontColor=default;flipH=0;flipV=1;" vertex="1" parent="p89t9oVVgF_kUO3e--Zp-4">
          <mxGeometry y="68" width="340" height="32" as="geometry" />
        </mxCell>
        <mxCell id="p89t9oVVgF_kUO3e--Zp-14" value="+ getHashValue(hash string) (value string, err error)" style="text;strokeColor=default;fillColor=none;align=left;verticalAlign=top;spacingLeft=4;spacingRight=4;overflow=hidden;rotatable=0;points=[[0,0.5],[1,0.5]];portConstraint=eastwest;whiteSpace=wrap;html=1;fontFamily=Roboto Mono;fontSource=https%3A%2F%2Ffonts.googleapis.com%2Fcss%3Ffamily%3DRoboto%2BMono;fontSize=10;fontColor=default;flipH=0;flipV=1;labelBorderColor=none;labelBackgroundColor=none;" vertex="1" parent="p89t9oVVgF_kUO3e--Zp-4">
          <mxGeometry y="100" width="340" height="32" as="geometry" />
        </mxCell>
        <mxCell id="p89t9oVVgF_kUO3e--Zp-12" style="edgeStyle=orthogonalEdgeStyle;rounded=0;orthogonalLoop=1;jettySize=auto;html=1;fontFamily=Roboto Mono;fontSource=https%3A%2F%2Ffonts.googleapis.com%2Fcss%3Ffamily%3DRoboto%2BMono;fontSize=10;fontColor=default;exitX=0.5;exitY=0;exitDx=0;exitDy=0;" edge="1" parent="1" source="p89t9oVVgF_kUO3e--Zp-11" target="p89t9oVVgF_kUO3e--Zp-4">
          <mxGeometry relative="1" as="geometry">
            <Array as="points">
              <mxPoint x="115" y="470" />
              <mxPoint x="115" y="370" />
              <mxPoint x="140" y="370" />
            </Array>
          </mxGeometry>
        </mxCell>
        <mxCell id="p89t9oVVgF_kUO3e--Zp-11" value="In-Memory Badger" style="html=1;whiteSpace=wrap;strokeColor=#6c8ebf;align=center;verticalAlign=middle;fontFamily=Roboto Mono;fontSource=https%3A%2F%2Ffonts.googleapis.com%2Fcss%3Ffamily%3DRoboto%2BMono;fontSize=10;fontColor=default;fillColor=#dae8fc;" vertex="1" parent="1">
          <mxGeometry x="60" y="450" width="110" height="50" as="geometry" />
        </mxCell>
      </root>
    </mxGraphModel>
  </diagram>
</mxfile>
